<svg height="512pt" viewBox="0 0 512 512" width="512pt" xmlns="http://www.w3.org/2000/svg"><linearGradient id="a" gradientUnits="userSpaceOnUse" x1="256" x2="256" y1="512" y2="0"><stop offset="0" stop-color="#ffd600"/><stop offset=".527" stop-color="#ff0095"/><stop offset=".58" stop-color="#f2069c"/><stop offset=".679" stop-color="#cf14b0"/><stop offset=".813" stop-color="#962ccf"/><stop offset=".975" stop-color="#494dfa"/><stop offset=".995" stop-color="#3f51ff"/></linearGradient><path d="M512 256c0 47.586-12.988 92.148-35.61 130.332a257.33 257.33 0 01-52.663 63.066c-42.965 37.293-98.473 60.512-159.356 62.465-2.781.094-5.57.137-8.371.137s-5.59-.043-8.371-.137c-60.582-1.941-115.824-24.93-158.7-61.886A257.103 257.103 0 0134.544 384.5C12.582 346.738 0 302.832 0 256c0-45.266 11.746-87.793 32.36-124.688 32.132-57.5 85.796-101.335 150.077-120.582C205.73 3.75 230.43 0 256 0s50.27 3.75 73.562 10.73c63.852 19.122 117.235 62.508 149.43 119.442C500.004 167.328 512 210.266 512 256zm0 0" fill="url(#a)"/><g fill="#f1f1f1"><path d="M485.098 141.633C482.172 73.493 425.82 18.96 356.984 18.96H155.027c-68.859 0-125.21 54.543-128.125 122.691-.086 1.852-.125 3.7-.125 5.559v201.95c0 8.972.93 17.741 2.696 26.194 20.875 39.56 51.824 72.985 89.422 96.872 11.46 3.375 23.593 5.183 36.132 5.183h201.957c12.54 0 24.668-1.808 36.133-5.183 37.586-23.887 68.524-57.301 89.41-96.84a128.374 128.374 0 002.696-26.227V147.21c0-1.87-.04-3.73-.125-5.577zm-41.73 207.527c0 47.637-38.759 86.39-86.384 86.39H155.027c-47.636 0-86.394-38.753-86.394-86.39V147.21c0-47.636 38.758-86.39 86.394-86.39h201.957c47.625 0 86.383 38.754 86.383 86.39zm0 0"/><path d="M256.004 127.871c-66.34 0-120.32 53.98-120.32 120.32S189.664 368.5 256.004 368.5c66.344 0 120.312-53.969 120.312-120.309s-53.968-120.32-120.312-120.32zm0 198.77c-43.27 0-78.461-35.192-78.461-78.45 0-43.27 35.191-78.46 78.46-78.46 43.263 0 78.454 35.19 78.454 78.46 0 43.258-35.191 78.45-78.453 78.45zm0 0M406.363 124.738c0 15.282-12.39 27.672-27.672 27.672-15.285 0-27.675-12.39-27.675-27.672 0-15.285 12.39-27.672 27.675-27.672 15.282 0 27.672 12.387 27.672 27.672zm0 0"/></g></svg>